<mxfile host="65bd71144e">
    <diagram id="1Ppz6q04f_pC2L-XRFzI" name="Page-1">
        <mxGraphModel dx="5565" dy="3195" grid="0" gridSize="10" guides="1" tooltips="1" connect="1" arrows="1" fold="1" page="1" pageScale="1" pageWidth="850" pageHeight="1100" background="#ffffff" math="0" shadow="0">
            <root>
                <mxCell id="0"/>
                <mxCell id="1" parent="0"/>
                <mxCell id="110" value="" style="whiteSpace=wrap;html=1;labelBackgroundColor=none;labelBorderColor=default;strokeColor=none;fontColor=#000000;fillColor=none;" parent="1" vertex="1">
                    <mxGeometry x="-248" y="-176" width="1577" height="3475" as="geometry"/>
                </mxCell>
                <mxCell id="75" value="&lt;font style=&quot;font-size: 20px;&quot;&gt;&amp;lt;&amp;lt;System&amp;gt;&amp;gt;&lt;br&gt;&lt;b&gt;SARM&lt;/b&gt;&lt;/font&gt;" style="html=1;align=center;verticalAlign=top;dashed=0;fillColor=#F7EDFF;strokeColor=#000000;fontColor=#000000;labelBackgroundColor=none;" parent="1" vertex="1">
                    <mxGeometry x="244" y="-64" width="453" height="3217" as="geometry"/>
                </mxCell>
                <mxCell id="5" value="" style="edgeStyle=none;html=1;fontColor=#000000;strokeColor=#000000;entryX=0;entryY=0.5;entryDx=0;entryDy=0;" parent="1" source="3" target="4" edge="1">
                    <mxGeometry relative="1" as="geometry"/>
                </mxCell>
                <mxCell id="7" value="" style="edgeStyle=none;html=1;strokeColor=#000000;fontColor=#000000;entryX=0;entryY=0.5;entryDx=0;entryDy=0;" parent="1" source="3" target="6" edge="1">
                    <mxGeometry relative="1" as="geometry"/>
                </mxCell>
                <mxCell id="9" value="" style="edgeStyle=none;html=1;strokeColor=#000000;fontColor=#000000;entryX=0;entryY=0.5;entryDx=0;entryDy=0;" parent="1" source="3" target="8" edge="1">
                    <mxGeometry relative="1" as="geometry"/>
                </mxCell>
                <mxCell id="11" value="" style="edgeStyle=none;html=1;strokeColor=#000000;fontColor=#000000;entryX=0;entryY=0.5;entryDx=0;entryDy=0;" parent="1" source="3" target="10" edge="1">
                    <mxGeometry relative="1" as="geometry"/>
                </mxCell>
                <mxCell id="15" value="" style="edgeStyle=none;html=1;strokeColor=#000000;fontColor=#000000;entryX=0;entryY=0.5;entryDx=0;entryDy=0;" parent="1" source="3" target="14" edge="1">
                    <mxGeometry relative="1" as="geometry"/>
                </mxCell>
                <mxCell id="17" value="" style="edgeStyle=none;html=1;strokeColor=#000000;fontColor=#000000;entryX=0;entryY=0.5;entryDx=0;entryDy=0;" parent="1" source="3" target="16" edge="1">
                    <mxGeometry relative="1" as="geometry"/>
                </mxCell>
                <mxCell id="20" value="" style="edgeStyle=none;html=1;strokeColor=#000000;fontColor=#000000;entryX=0;entryY=0.5;entryDx=0;entryDy=0;" parent="1" source="3" target="19" edge="1">
                    <mxGeometry relative="1" as="geometry"/>
                </mxCell>
                <mxCell id="23" value="" style="edgeStyle=none;html=1;strokeColor=#000000;fontColor=#000000;entryX=0;entryY=0.5;entryDx=0;entryDy=0;" parent="1" source="3" target="22" edge="1">
                    <mxGeometry relative="1" as="geometry"/>
                </mxCell>
                <mxCell id="25" value="" style="edgeStyle=none;html=1;strokeColor=#000000;fontColor=#000000;entryX=0;entryY=0.5;entryDx=0;entryDy=0;" parent="1" source="3" target="24" edge="1">
                    <mxGeometry relative="1" as="geometry"/>
                </mxCell>
                <mxCell id="27" value="" style="edgeStyle=none;html=1;strokeColor=#000000;fontColor=#000000;entryX=0;entryY=0.5;entryDx=0;entryDy=0;" parent="1" source="3" target="26" edge="1">
                    <mxGeometry relative="1" as="geometry"/>
                </mxCell>
                <mxCell id="29" value="" style="edgeStyle=none;html=1;strokeColor=#000000;fontColor=#000000;entryX=0;entryY=0.5;entryDx=0;entryDy=0;" parent="1" source="3" target="28" edge="1">
                    <mxGeometry relative="1" as="geometry"/>
                </mxCell>
                <mxCell id="31" value="" style="edgeStyle=none;html=1;strokeColor=#000000;fontColor=#000000;entryX=0;entryY=0.5;entryDx=0;entryDy=0;" parent="1" source="3" target="30" edge="1">
                    <mxGeometry relative="1" as="geometry"/>
                </mxCell>
                <mxCell id="33" value="" style="edgeStyle=none;html=1;strokeColor=#000000;fontColor=#000000;entryX=0;entryY=0.5;entryDx=0;entryDy=0;" parent="1" source="3" target="32" edge="1">
                    <mxGeometry relative="1" as="geometry"/>
                </mxCell>
                <mxCell id="35" value="" style="edgeStyle=none;html=1;strokeColor=#000000;fontColor=#000000;entryX=0;entryY=0.5;entryDx=0;entryDy=0;" parent="1" source="3" target="34" edge="1">
                    <mxGeometry relative="1" as="geometry"/>
                </mxCell>
                <mxCell id="37" value="" style="edgeStyle=none;html=1;strokeColor=#000000;fontColor=#000000;entryX=0;entryY=0.25;entryDx=0;entryDy=0;" parent="1" source="3" target="36" edge="1">
                    <mxGeometry relative="1" as="geometry"/>
                </mxCell>
                <mxCell id="39" value="" style="edgeStyle=none;html=1;strokeColor=#000000;fontColor=#000000;entryX=0;entryY=0.5;entryDx=0;entryDy=0;" parent="1" source="3" target="38" edge="1">
                    <mxGeometry relative="1" as="geometry"/>
                </mxCell>
                <mxCell id="127" style="edgeStyle=none;html=1;entryX=0;entryY=0.5;entryDx=0;entryDy=0;fontColor=#000000;strokeColor=#000000;" edge="1" parent="1" source="3" target="111">
                    <mxGeometry relative="1" as="geometry"/>
                </mxCell>
                <mxCell id="130" style="edgeStyle=none;html=1;entryX=0;entryY=0.5;entryDx=0;entryDy=0;strokeColor=#000000;fontColor=#000000;" edge="1" parent="1" source="3" target="112">
                    <mxGeometry relative="1" as="geometry"/>
                </mxCell>
                <mxCell id="131" style="edgeStyle=none;html=1;entryX=0;entryY=0.5;entryDx=0;entryDy=0;strokeColor=#000000;fontColor=#000000;" edge="1" parent="1" source="3" target="113">
                    <mxGeometry relative="1" as="geometry"/>
                </mxCell>
                <mxCell id="132" style="edgeStyle=none;html=1;entryX=0;entryY=0.5;entryDx=0;entryDy=0;strokeColor=#000000;fontColor=#000000;" edge="1" parent="1" source="3" target="114">
                    <mxGeometry relative="1" as="geometry"/>
                </mxCell>
                <mxCell id="133" style="edgeStyle=none;html=1;entryX=0;entryY=0.5;entryDx=0;entryDy=0;strokeColor=#000000;fontColor=#000000;" edge="1" parent="1" source="3" target="115">
                    <mxGeometry relative="1" as="geometry"/>
                </mxCell>
                <mxCell id="134" style="edgeStyle=none;html=1;entryX=0;entryY=0.5;entryDx=0;entryDy=0;strokeColor=#000000;fontColor=#000000;" edge="1" parent="1" source="3" target="116">
                    <mxGeometry relative="1" as="geometry"/>
                </mxCell>
                <mxCell id="135" style="edgeStyle=none;html=1;entryX=0;entryY=0.5;entryDx=0;entryDy=0;strokeColor=#000000;fontColor=#000000;" edge="1" parent="1" source="3" target="123">
                    <mxGeometry relative="1" as="geometry"/>
                </mxCell>
                <mxCell id="136" style="edgeStyle=none;html=1;entryX=0;entryY=0.5;entryDx=0;entryDy=0;strokeColor=#000000;fontColor=#000000;" edge="1" parent="1" source="3" target="124">
                    <mxGeometry relative="1" as="geometry"/>
                </mxCell>
                <mxCell id="170" style="edgeStyle=none;html=1;entryX=0;entryY=0.5;entryDx=0;entryDy=0;strokeColor=#000000;fontColor=#000000;" edge="1" parent="1" source="3" target="144">
                    <mxGeometry relative="1" as="geometry"/>
                </mxCell>
                <mxCell id="171" style="edgeStyle=none;html=1;entryX=0;entryY=0.5;entryDx=0;entryDy=0;strokeColor=#000000;fontColor=#000000;" edge="1" parent="1" source="3" target="154">
                    <mxGeometry relative="1" as="geometry"/>
                </mxCell>
                <mxCell id="172" style="edgeStyle=none;html=1;entryX=0;entryY=0.5;entryDx=0;entryDy=0;strokeColor=#000000;fontColor=#000000;" edge="1" parent="1" source="3" target="155">
                    <mxGeometry relative="1" as="geometry"/>
                </mxCell>
                <mxCell id="3" value="Admin" style="shape=umlActor;verticalLabelPosition=bottom;verticalAlign=top;html=1;strokeColor=#000000;fillColor=none;fontColor=#000000;fontSize=31;" parent="1" vertex="1">
                    <mxGeometry x="-47" y="488" width="89" height="133" as="geometry"/>
                </mxCell>
                <mxCell id="79" style="edgeStyle=none;html=1;entryX=0;entryY=0.5;entryDx=0;entryDy=0;strokeColor=#000000;fontSize=20;fontColor=#000000;endArrow=classic;endFill=1;exitX=1;exitY=0.5;exitDx=0;exitDy=0;" parent="1" source="4" target="76" edge="1">
                    <mxGeometry relative="1" as="geometry"/>
                </mxCell>
                <mxCell id="4" value="UC 6.2.6 Create a new patient profile" style="whiteSpace=wrap;html=1;verticalAlign=top;fillColor=#FFE6CC;strokeColor=#000000;fontColor=#000000;" parent="1" vertex="1">
                    <mxGeometry x="271" y="10" width="400" height="30" as="geometry"/>
                </mxCell>
                <mxCell id="80" style="edgeStyle=none;html=1;entryX=0;entryY=0.5;entryDx=0;entryDy=0;strokeColor=#000000;fontSize=20;fontColor=#000000;endArrow=classic;endFill=1;exitX=1;exitY=0.5;exitDx=0;exitDy=0;" parent="1" source="6" target="76" edge="1">
                    <mxGeometry relative="1" as="geometry"/>
                </mxCell>
                <mxCell id="84" style="edgeStyle=none;html=1;exitX=1;exitY=0.5;exitDx=0;exitDy=0;entryX=0;entryY=0.5;entryDx=0;entryDy=0;strokeColor=#000000;fontSize=20;fontColor=#000000;endArrow=classic;endFill=1;" parent="1" source="6" target="13" edge="1">
                    <mxGeometry relative="1" as="geometry"/>
                </mxCell>
                <mxCell id="6" value="UC 6.2.7 Edit an existing patient profile" style="whiteSpace=wrap;html=1;verticalAlign=top;fillColor=#FFE6CC;strokeColor=#000000;fontColor=#000000;" parent="1" vertex="1">
                    <mxGeometry x="271" y="50" width="400" height="30" as="geometry"/>
                </mxCell>
                <mxCell id="81" style="edgeStyle=none;html=1;entryX=0;entryY=0.5;entryDx=0;entryDy=0;strokeColor=#000000;fontSize=20;fontColor=#000000;endArrow=classic;endFill=1;exitX=1;exitY=0.5;exitDx=0;exitDy=0;" parent="1" source="8" target="76" edge="1">
                    <mxGeometry relative="1" as="geometry"/>
                </mxCell>
                <mxCell id="8" value="UC 6.2.8 Delete a patient profile" style="whiteSpace=wrap;html=1;verticalAlign=top;fillColor=#FFE6CC;strokeColor=#000000;fontColor=#000000;" parent="1" vertex="1">
                    <mxGeometry x="271" y="90" width="400" height="30" as="geometry"/>
                </mxCell>
                <mxCell id="82" style="edgeStyle=none;html=1;entryX=0;entryY=0.5;entryDx=0;entryDy=0;strokeColor=#000000;fontSize=20;fontColor=#000000;endArrow=classic;endFill=1;exitX=1;exitY=0.5;exitDx=0;exitDy=0;" parent="1" source="10" target="76" edge="1">
                    <mxGeometry relative="1" as="geometry"/>
                </mxCell>
                <mxCell id="10" value="UC 6.2.9&amp;nbsp; List/search patient profiles&amp;nbsp;" style="whiteSpace=wrap;html=1;verticalAlign=top;fillColor=#FFE6CC;strokeColor=#000000;fontColor=#000000;" parent="1" vertex="1">
                    <mxGeometry x="271" y="130" width="400" height="30" as="geometry"/>
                </mxCell>
                <mxCell id="12" value="IAM" style="html=1;strokeColor=#000000;fontColor=#000000;fillColor=none;" parent="1" vertex="1">
                    <mxGeometry x="1096" y="2186" width="110" height="50" as="geometry"/>
                </mxCell>
                <mxCell id="13" value="SMTP" style="html=1;strokeColor=#000000;fontColor=#000000;fillColor=none;" parent="1" vertex="1">
                    <mxGeometry x="1096" y="552" width="110" height="50" as="geometry"/>
                </mxCell>
                <mxCell id="83" style="edgeStyle=none;html=1;entryX=0;entryY=0.5;entryDx=0;entryDy=0;strokeColor=#000000;fontSize=20;fontColor=#000000;endArrow=classic;endFill=1;exitX=1;exitY=0.5;exitDx=0;exitDy=0;" parent="1" source="14" target="76" edge="1">
                    <mxGeometry relative="1" as="geometry"/>
                </mxCell>
                <mxCell id="14" value="UC 6.2.10&amp;nbsp; create a new staff profile," style="whiteSpace=wrap;html=1;verticalAlign=top;fillColor=#FFE6CC;strokeColor=#000000;fontColor=#000000;" parent="1" vertex="1">
                    <mxGeometry x="271" y="170" width="400" height="30" as="geometry"/>
                </mxCell>
                <mxCell id="85" style="edgeStyle=none;html=1;exitX=1;exitY=0.75;exitDx=0;exitDy=0;entryX=0;entryY=0.5;entryDx=0;entryDy=0;strokeColor=#000000;fontSize=20;fontColor=#000000;endArrow=classic;endFill=1;" parent="1" source="16" target="13" edge="1">
                    <mxGeometry relative="1" as="geometry"/>
                </mxCell>
                <mxCell id="86" style="edgeStyle=none;html=1;entryX=0;entryY=0.5;entryDx=0;entryDy=0;strokeColor=#000000;fontSize=20;fontColor=#000000;endArrow=classic;endFill=1;exitX=1;exitY=0.75;exitDx=0;exitDy=0;" parent="1" source="16" target="76" edge="1">
                    <mxGeometry relative="1" as="geometry"/>
                </mxCell>
                <mxCell id="16" value="UC 6.2.11&amp;nbsp; edit a staff’s profile" style="whiteSpace=wrap;html=1;verticalAlign=top;fillColor=#FFE6CC;strokeColor=#000000;fontColor=#000000;" parent="1" vertex="1">
                    <mxGeometry x="271" y="210" width="400" height="30" as="geometry"/>
                </mxCell>
                <mxCell id="87" style="edgeStyle=none;html=1;entryX=0;entryY=0.5;entryDx=0;entryDy=0;strokeColor=#000000;fontSize=20;fontColor=#000000;endArrow=classic;endFill=1;exitX=1;exitY=0.5;exitDx=0;exitDy=0;" parent="1" source="19" target="76" edge="1">
                    <mxGeometry relative="1" as="geometry"/>
                </mxCell>
                <mxCell id="19" value="UC 6.2.12&amp;nbsp; deactivate a staff profile" style="whiteSpace=wrap;html=1;verticalAlign=top;fillColor=#FFE6CC;strokeColor=#000000;fontColor=#000000;" parent="1" vertex="1">
                    <mxGeometry x="271" y="250" width="400" height="30" as="geometry"/>
                </mxCell>
                <mxCell id="88" style="edgeStyle=none;html=1;entryX=0;entryY=0.5;entryDx=0;entryDy=0;strokeColor=#000000;fontSize=20;fontColor=#000000;endArrow=classic;endFill=1;exitX=1;exitY=0.5;exitDx=0;exitDy=0;" parent="1" source="22" target="76" edge="1">
                    <mxGeometry relative="1" as="geometry"/>
                </mxCell>
                <mxCell id="22" value="UC 6.2.13&amp;nbsp; list/search staff profiles" style="whiteSpace=wrap;html=1;verticalAlign=top;fillColor=#FFE6CC;strokeColor=#000000;fontColor=#000000;" parent="1" vertex="1">
                    <mxGeometry x="271" y="290" width="400" height="33" as="geometry"/>
                </mxCell>
                <mxCell id="89" style="edgeStyle=none;html=1;entryX=0;entryY=0.5;entryDx=0;entryDy=0;strokeColor=#000000;fontSize=20;fontColor=#000000;endArrow=classic;endFill=1;exitX=1;exitY=0.5;exitDx=0;exitDy=0;" parent="1" source="24" target="76" edge="1">
                    <mxGeometry relative="1" as="geometry"/>
                </mxCell>
                <mxCell id="24" value="UC 6.2.18&amp;nbsp; add new types of operations" style="whiteSpace=wrap;html=1;verticalAlign=top;fillColor=#FFE6CC;strokeColor=#000000;fontColor=#000000;" parent="1" vertex="1">
                    <mxGeometry x="271" y="333" width="400" height="34" as="geometry"/>
                </mxCell>
                <mxCell id="90" style="edgeStyle=none;html=1;entryX=0;entryY=0.5;entryDx=0;entryDy=0;strokeColor=#000000;fontSize=20;fontColor=#000000;endArrow=classic;endFill=1;exitX=1;exitY=0.5;exitDx=0;exitDy=0;" parent="1" source="26" target="76" edge="1">
                    <mxGeometry relative="1" as="geometry"/>
                </mxCell>
                <mxCell id="26" value="UC 6.2.19&amp;nbsp; edit existing operation types" style="whiteSpace=wrap;html=1;verticalAlign=top;fillColor=#FFE6CC;strokeColor=#000000;fontColor=#000000;" parent="1" vertex="1">
                    <mxGeometry x="271" y="377" width="400" height="33" as="geometry"/>
                </mxCell>
                <mxCell id="91" style="edgeStyle=none;html=1;entryX=0;entryY=0.5;entryDx=0;entryDy=0;strokeColor=#000000;fontSize=20;fontColor=#000000;endArrow=classic;endFill=1;exitX=1;exitY=0.5;exitDx=0;exitDy=0;" parent="1" source="28" target="76" edge="1">
                    <mxGeometry relative="1" as="geometry"/>
                </mxCell>
                <mxCell id="28" value="UC 6.2.20&amp;nbsp;remove obsolete or no longer performed operation types" style="whiteSpace=wrap;html=1;verticalAlign=top;fillColor=#FFE6CC;strokeColor=#000000;fontColor=#000000;" parent="1" vertex="1">
                    <mxGeometry x="271" y="420" width="400" height="44" as="geometry"/>
                </mxCell>
                <mxCell id="92" style="edgeStyle=none;html=1;strokeColor=#000000;fontSize=20;fontColor=#000000;endArrow=classic;endFill=1;exitX=1;exitY=0.5;exitDx=0;exitDy=0;entryX=0;entryY=0.25;entryDx=0;entryDy=0;" parent="1" source="30" edge="1" target="76">
                    <mxGeometry relative="1" as="geometry">
                        <mxPoint x="982.0000762939453" y="747.8333587646484" as="targetPoint"/>
                    </mxGeometry>
                </mxCell>
                <mxCell id="188" style="edgeStyle=none;html=1;exitX=1;exitY=0.5;exitDx=0;exitDy=0;entryX=0;entryY=0.5;entryDx=0;entryDy=0;strokeColor=#000000;fontColor=#000000;" edge="1" parent="1" source="30" target="76">
                    <mxGeometry relative="1" as="geometry"/>
                </mxCell>
                <mxCell id="30" value="6.1.21&amp;nbsp; list/search operation types" style="whiteSpace=wrap;html=1;verticalAlign=top;fillColor=#FFE6CC;strokeColor=#000000;fontColor=#000000;" parent="1" vertex="1">
                    <mxGeometry x="271" y="474" width="400" height="32" as="geometry"/>
                </mxCell>
                <mxCell id="189" style="edgeStyle=none;html=1;exitX=1;exitY=0.75;exitDx=0;exitDy=0;strokeColor=#000000;fontColor=#000000;" edge="1" parent="1" source="32">
                    <mxGeometry relative="1" as="geometry">
                        <mxPoint x="1096.0299072265625" y="1326.8096400669647" as="targetPoint"/>
                    </mxGeometry>
                </mxCell>
                <mxCell id="32" value="UC 6.3.1&amp;nbsp;obtain the better scheduling " style="whiteSpace=wrap;html=1;verticalAlign=top;fillColor=#FFE6CC;strokeColor=#000000;fontColor=#000000;" parent="1" vertex="1">
                    <mxGeometry x="271" y="529" width="400" height="33" as="geometry"/>
                </mxCell>
                <mxCell id="190" style="edgeStyle=none;html=1;exitX=1;exitY=0.5;exitDx=0;exitDy=0;strokeColor=#000000;fontColor=#000000;" edge="1" parent="1" source="34">
                    <mxGeometry relative="1" as="geometry">
                        <mxPoint x="1096.0299072265625" y="1328.7143729073664" as="targetPoint"/>
                    </mxGeometry>
                </mxCell>
                <mxCell id="34" value="UC 6.3.2&amp;nbsp; know till what dimension in terms of number of surgeries is possible to ask for the better solution" style="whiteSpace=wrap;html=1;verticalAlign=top;fillColor=#FFE6CC;strokeColor=#000000;fontColor=#000000;" parent="1" vertex="1">
                    <mxGeometry x="271" y="573" width="400" height="43" as="geometry"/>
                </mxCell>
                <mxCell id="191" style="edgeStyle=none;html=1;exitX=1;exitY=0.5;exitDx=0;exitDy=0;strokeColor=#000000;fontColor=#000000;" edge="1" parent="1" source="36">
                    <mxGeometry relative="1" as="geometry">
                        <mxPoint x="1094.1251743861612" y="1330.6191057477681" as="targetPoint"/>
                    </mxGeometry>
                </mxCell>
                <mxCell id="36" value="UC 6.3.3&amp;nbsp; obtain a good schedule" style="whiteSpace=wrap;html=1;verticalAlign=top;fillColor=#FFE6CC;strokeColor=#000000;fontColor=#000000;" parent="1" vertex="1">
                    <mxGeometry x="271" y="627" width="400" height="30" as="geometry"/>
                </mxCell>
                <mxCell id="192" style="edgeStyle=none;html=1;exitX=1;exitY=0.5;exitDx=0;exitDy=0;entryX=0;entryY=0.5;entryDx=0;entryDy=0;strokeColor=#000000;fontColor=#000000;" edge="1" parent="1" source="38" target="76">
                    <mxGeometry relative="1" as="geometry"/>
                </mxCell>
                <mxCell id="38" value="UC 6.4.4&amp;nbsp; identify and quantify the risks involved in the &lt;br/&gt;recommended solution" style="whiteSpace=wrap;html=1;verticalAlign=top;fillColor=#FFE6CC;strokeColor=#000000;fontColor=#000000;" parent="1" vertex="1">
                    <mxGeometry x="271" y="668" width="400" height="44" as="geometry"/>
                </mxCell>
                <mxCell id="42" value="" style="edgeStyle=none;html=1;entryX=0;entryY=0.5;entryDx=0;entryDy=0;endArrow=classic;endFill=1;strokeColor=#000000;" parent="1" source="40" target="41" edge="1">
                    <mxGeometry relative="1" as="geometry"/>
                </mxCell>
                <mxCell id="45" value="" style="edgeStyle=none;html=1;strokeColor=#000000;endArrow=classic;endFill=1;entryX=0;entryY=0.5;entryDx=0;entryDy=0;" parent="1" source="40" target="44" edge="1">
                    <mxGeometry relative="1" as="geometry"/>
                </mxCell>
                <mxCell id="47" value="" style="edgeStyle=none;html=1;strokeColor=#000000;endArrow=classic;endFill=1;entryX=0;entryY=0.5;entryDx=0;entryDy=0;" parent="1" source="40" target="46" edge="1">
                    <mxGeometry relative="1" as="geometry"/>
                </mxCell>
                <mxCell id="49" value="" style="edgeStyle=none;html=1;strokeColor=#000000;endArrow=classic;endFill=1;entryX=0;entryY=0.5;entryDx=0;entryDy=0;" parent="1" source="40" target="48" edge="1">
                    <mxGeometry relative="1" as="geometry"/>
                </mxCell>
                <mxCell id="174" style="edgeStyle=none;html=1;entryX=0;entryY=0.75;entryDx=0;entryDy=0;strokeColor=#000000;fontColor=#000000;" edge="1" parent="1" source="40" target="145">
                    <mxGeometry relative="1" as="geometry"/>
                </mxCell>
                <mxCell id="175" style="edgeStyle=none;html=1;entryX=0;entryY=0.75;entryDx=0;entryDy=0;strokeColor=#000000;fontColor=#000000;" edge="1" parent="1" source="40" target="146">
                    <mxGeometry relative="1" as="geometry"/>
                </mxCell>
                <mxCell id="176" style="edgeStyle=none;html=1;entryX=0;entryY=0.5;entryDx=0;entryDy=0;strokeColor=#000000;fontColor=#000000;" edge="1" parent="1" source="40" target="147">
                    <mxGeometry relative="1" as="geometry"/>
                </mxCell>
                <mxCell id="177" style="edgeStyle=none;html=1;entryX=0;entryY=0.5;entryDx=0;entryDy=0;strokeColor=#000000;fontColor=#000000;" edge="1" parent="1" source="40" target="148">
                    <mxGeometry relative="1" as="geometry"/>
                </mxCell>
                <mxCell id="40" value="Patient" style="shape=umlActor;verticalLabelPosition=bottom;verticalAlign=top;html=1;strokeColor=#000000;fillColor=none;fontColor=#000000;fontSize=31;" parent="1" vertex="1">
                    <mxGeometry x="-39.25" y="1381" width="75.75" height="140" as="geometry"/>
                </mxCell>
                <mxCell id="93" style="edgeStyle=none;html=1;entryX=0;entryY=0.5;entryDx=0;entryDy=0;strokeColor=#000000;fontSize=20;fontColor=#000000;endArrow=classic;endFill=1;exitX=1;exitY=0.5;exitDx=0;exitDy=0;" parent="1" source="41" target="12" edge="1">
                    <mxGeometry relative="1" as="geometry"/>
                </mxCell>
                <mxCell id="94" style="edgeStyle=none;html=1;entryX=0;entryY=0.5;entryDx=0;entryDy=0;strokeColor=#000000;fontSize=20;fontColor=#000000;endArrow=classic;endFill=1;exitX=1;exitY=0.5;exitDx=0;exitDy=0;" parent="1" source="41" target="76" edge="1">
                    <mxGeometry relative="1" as="geometry"/>
                </mxCell>
                <mxCell id="96" style="edgeStyle=none;html=1;exitX=1;exitY=0.5;exitDx=0;exitDy=0;entryX=0;entryY=0.5;entryDx=0;entryDy=0;strokeColor=#000000;fontSize=20;fontColor=#000000;endArrow=classic;endFill=1;" parent="1" source="41" target="13" edge="1">
                    <mxGeometry relative="1" as="geometry"/>
                </mxCell>
                <mxCell id="41" value="UC 6.2.1&amp;nbsp;register for the healthcare application" style="whiteSpace=wrap;html=1;verticalAlign=top;fillColor=#FFFFCC;strokeColor=#000000;fontColor=#000000;" parent="1" vertex="1">
                    <mxGeometry x="271" y="1290" width="400" height="35" as="geometry"/>
                </mxCell>
                <mxCell id="95" style="edgeStyle=none;html=1;entryX=0;entryY=0.5;entryDx=0;entryDy=0;strokeColor=#000000;fontSize=20;fontColor=#000000;endArrow=classic;endFill=1;exitX=1;exitY=0.5;exitDx=0;exitDy=0;" parent="1" source="44" target="76" edge="1">
                    <mxGeometry relative="1" as="geometry"/>
                </mxCell>
                <mxCell id="108" style="edgeStyle=none;html=1;exitX=1;exitY=0.5;exitDx=0;exitDy=0;strokeColor=#030303;entryX=0;entryY=0.5;entryDx=0;entryDy=0;" parent="1" source="44" edge="1" target="13">
                    <mxGeometry relative="1" as="geometry">
                        <mxPoint x="982.9064140319824" y="505.4188690185547" as="targetPoint"/>
                    </mxGeometry>
                </mxCell>
                <mxCell id="44" value="UC 6.2.2&amp;nbsp;update my user profile" style="whiteSpace=wrap;html=1;verticalAlign=top;fillColor=#FFFFCC;strokeColor=#000000;fontColor=#000000;" parent="1" vertex="1">
                    <mxGeometry x="271" y="1337" width="400" height="35" as="geometry"/>
                </mxCell>
                <mxCell id="97" style="edgeStyle=none;html=1;entryX=0;entryY=0.5;entryDx=0;entryDy=0;strokeColor=#000000;fontSize=20;fontColor=#000000;endArrow=classic;endFill=1;exitX=1;exitY=0.5;exitDx=0;exitDy=0;" parent="1" source="46" target="76" edge="1">
                    <mxGeometry relative="1" as="geometry"/>
                </mxCell>
                <mxCell id="109" style="edgeStyle=none;html=1;entryX=0;entryY=0.5;entryDx=0;entryDy=0;strokeColor=#030303;exitX=1;exitY=0.5;exitDx=0;exitDy=0;" parent="1" source="46" target="13" edge="1">
                    <mxGeometry relative="1" as="geometry"/>
                </mxCell>
                <mxCell id="46" value="UC 6.2.3&amp;nbsp;delete my account and all associated data" style="whiteSpace=wrap;html=1;verticalAlign=top;fillColor=#FFFFCC;strokeColor=#000000;fontColor=#000000;" parent="1" vertex="1">
                    <mxGeometry x="271" y="1386" width="400" height="39" as="geometry"/>
                </mxCell>
                <mxCell id="98" style="edgeStyle=none;html=1;entryX=0;entryY=0.5;entryDx=0;entryDy=0;strokeColor=#000000;fontSize=20;fontColor=#000000;endArrow=classic;endFill=1;exitX=1;exitY=0.25;exitDx=0;exitDy=0;" parent="1" source="48" target="12" edge="1">
                    <mxGeometry relative="1" as="geometry"/>
                </mxCell>
                <mxCell id="48" value="UC 6.2.5&amp;nbsp;log in to the healthcare system" style="whiteSpace=wrap;html=1;verticalAlign=top;fillColor=#FFFFCC;strokeColor=#000000;fontColor=#000000;" parent="1" vertex="1">
                    <mxGeometry x="271" y="1437" width="400" height="35" as="geometry"/>
                </mxCell>
                <mxCell id="53" value="" style="edgeStyle=none;html=1;strokeColor=#000000;endArrow=classic;endFill=1;entryX=0;entryY=0.5;entryDx=0;entryDy=0;" parent="1" source="51" target="52" edge="1">
                    <mxGeometry relative="1" as="geometry"/>
                </mxCell>
                <mxCell id="55" value="" style="edgeStyle=none;html=1;strokeColor=#000000;endArrow=classic;endFill=1;entryX=0;entryY=0.5;entryDx=0;entryDy=0;" parent="1" source="51" target="54" edge="1">
                    <mxGeometry relative="1" as="geometry"/>
                </mxCell>
                <mxCell id="59" value="" style="edgeStyle=none;html=1;strokeColor=#000000;endArrow=classic;endFill=1;entryX=0;entryY=0.5;entryDx=0;entryDy=0;" parent="1" source="51" target="58" edge="1">
                    <mxGeometry relative="1" as="geometry"/>
                </mxCell>
                <mxCell id="61" value="" style="edgeStyle=none;html=1;strokeColor=#000000;endArrow=classic;endFill=1;entryX=0;entryY=0.25;entryDx=0;entryDy=0;" parent="1" source="51" target="60" edge="1">
                    <mxGeometry relative="1" as="geometry"/>
                </mxCell>
                <mxCell id="137" style="edgeStyle=none;html=1;entryX=0;entryY=0.5;entryDx=0;entryDy=0;strokeColor=#000000;fontColor=#000000;" edge="1" parent="1" source="51" target="117">
                    <mxGeometry relative="1" as="geometry"/>
                </mxCell>
                <mxCell id="138" style="edgeStyle=none;html=1;entryX=0;entryY=0.5;entryDx=0;entryDy=0;strokeColor=#000000;fontColor=#000000;" edge="1" parent="1" source="51" target="118">
                    <mxGeometry relative="1" as="geometry"/>
                </mxCell>
                <mxCell id="139" style="edgeStyle=none;html=1;entryX=0;entryY=0.5;entryDx=0;entryDy=0;strokeColor=#000000;fontColor=#000000;" edge="1" parent="1" source="51" target="119">
                    <mxGeometry relative="1" as="geometry"/>
                </mxCell>
                <mxCell id="140" style="edgeStyle=none;html=1;entryX=0;entryY=0.5;entryDx=0;entryDy=0;strokeColor=#000000;fontColor=#000000;" edge="1" parent="1" source="51" target="120">
                    <mxGeometry relative="1" as="geometry"/>
                </mxCell>
                <mxCell id="141" style="edgeStyle=none;html=1;entryX=0;entryY=0.5;entryDx=0;entryDy=0;strokeColor=#000000;fontColor=#000000;" edge="1" parent="1" source="51" target="121">
                    <mxGeometry relative="1" as="geometry"/>
                </mxCell>
                <mxCell id="142" style="edgeStyle=none;html=1;entryX=0;entryY=0.5;entryDx=0;entryDy=0;strokeColor=#000000;fontColor=#000000;" edge="1" parent="1" source="51" target="122">
                    <mxGeometry relative="1" as="geometry"/>
                </mxCell>
                <mxCell id="143" style="edgeStyle=none;html=1;entryX=0;entryY=0.5;entryDx=0;entryDy=0;strokeColor=#000000;fontColor=#000000;" edge="1" parent="1" source="51" target="125">
                    <mxGeometry relative="1" as="geometry"/>
                </mxCell>
                <mxCell id="178" style="edgeStyle=none;html=1;entryX=0;entryY=0.75;entryDx=0;entryDy=0;strokeColor=#000000;fontColor=#000000;" edge="1" parent="1" source="51" target="158">
                    <mxGeometry relative="1" as="geometry"/>
                </mxCell>
                <mxCell id="179" style="edgeStyle=none;html=1;entryX=0;entryY=0.75;entryDx=0;entryDy=0;strokeColor=#000000;fontColor=#000000;" edge="1" parent="1" source="51" target="163">
                    <mxGeometry relative="1" as="geometry"/>
                </mxCell>
                <mxCell id="180" style="edgeStyle=none;html=1;entryX=0;entryY=0.5;entryDx=0;entryDy=0;strokeColor=#000000;fontColor=#000000;" edge="1" parent="1" source="51" target="165">
                    <mxGeometry relative="1" as="geometry"/>
                </mxCell>
                <mxCell id="181" style="edgeStyle=none;html=1;entryX=0;entryY=0.75;entryDx=0;entryDy=0;strokeColor=#000000;fontColor=#000000;" edge="1" parent="1" source="51" target="166">
                    <mxGeometry relative="1" as="geometry"/>
                </mxCell>
                <mxCell id="182" style="edgeStyle=none;html=1;entryX=0;entryY=0.5;entryDx=0;entryDy=0;strokeColor=#000000;fontColor=#000000;" edge="1" parent="1" source="51" target="168">
                    <mxGeometry relative="1" as="geometry"/>
                </mxCell>
                <mxCell id="183" style="edgeStyle=none;html=1;entryX=0;entryY=0.75;entryDx=0;entryDy=0;strokeColor=#000000;fontColor=#000000;" edge="1" parent="1" source="51" target="169">
                    <mxGeometry relative="1" as="geometry"/>
                </mxCell>
                <mxCell id="51" value="&lt;font style=&quot;font-size: 31px;&quot;&gt;Doctor&lt;/font&gt;" style="shape=umlActor;verticalLabelPosition=bottom;verticalAlign=top;html=1;strokeColor=#000000;fillColor=none;fontColor=#000000;" parent="1" vertex="1">
                    <mxGeometry x="-44" y="1936" width="83" height="140" as="geometry"/>
                </mxCell>
                <mxCell id="99" style="edgeStyle=none;html=1;entryX=0;entryY=0.5;entryDx=0;entryDy=0;strokeColor=#000000;fontSize=20;fontColor=#000000;endArrow=classic;endFill=1;exitX=1;exitY=0.5;exitDx=0;exitDy=0;" parent="1" source="52" target="76" edge="1">
                    <mxGeometry relative="1" as="geometry"/>
                </mxCell>
                <mxCell id="52" value="UC 6.2.14&amp;nbsp; request an operation" style="whiteSpace=wrap;html=1;verticalAlign=top;fillColor=#E6FFCC;strokeColor=#000000;fontColor=#000000;" parent="1" vertex="1">
                    <mxGeometry x="271" y="1682" width="400" height="35" as="geometry"/>
                </mxCell>
                <mxCell id="100" style="edgeStyle=none;html=1;entryX=0;entryY=0.5;entryDx=0;entryDy=0;strokeColor=#000000;fontSize=20;fontColor=#000000;endArrow=classic;endFill=1;exitX=1;exitY=0.75;exitDx=0;exitDy=0;" parent="1" source="54" target="76" edge="1">
                    <mxGeometry relative="1" as="geometry"/>
                </mxCell>
                <mxCell id="54" value="UC 6.2.15&amp;nbsp;update an operation requisition" style="whiteSpace=wrap;html=1;verticalAlign=top;fillColor=#E6FFCC;strokeColor=#000000;fontColor=#000000;" parent="1" vertex="1">
                    <mxGeometry x="271" y="1729" width="400" height="36" as="geometry"/>
                </mxCell>
                <mxCell id="101" style="edgeStyle=none;html=1;entryX=0;entryY=0.5;entryDx=0;entryDy=0;strokeColor=#000000;fontSize=20;fontColor=#000000;endArrow=classic;endFill=1;exitX=1;exitY=0.5;exitDx=0;exitDy=0;" parent="1" source="58" target="76" edge="1">
                    <mxGeometry relative="1" as="geometry"/>
                </mxCell>
                <mxCell id="58" value="UC 6.2.16&amp;nbsp;remove an operation requisition" style="whiteSpace=wrap;html=1;verticalAlign=top;fillColor=#E6FFCC;strokeColor=#000000;fontColor=#000000;" parent="1" vertex="1">
                    <mxGeometry x="271" y="1777" width="400" height="36" as="geometry"/>
                </mxCell>
                <mxCell id="102" style="edgeStyle=none;html=1;strokeColor=#000000;fontSize=20;fontColor=#000000;endArrow=classic;endFill=1;exitX=1;exitY=0.5;exitDx=0;exitDy=0;entryX=0;entryY=0.5;entryDx=0;entryDy=0;" parent="1" source="60" edge="1" target="76">
                    <mxGeometry relative="1" as="geometry">
                        <mxPoint x="990.3333587646484" y="752.8332443237305" as="targetPoint"/>
                    </mxGeometry>
                </mxCell>
                <mxCell id="60" value="UC 6.2.17&amp;nbsp;list/search operation requisitions" style="whiteSpace=wrap;html=1;verticalAlign=top;fillColor=#E6FFCC;strokeColor=#000000;fontColor=#000000;" parent="1" vertex="1">
                    <mxGeometry x="271" y="1826" width="400" height="36" as="geometry"/>
                </mxCell>
                <mxCell id="64" value="" style="edgeStyle=none;html=1;strokeColor=#000000;endArrow=classic;endFill=1;entryX=0;entryY=0.5;entryDx=0;entryDy=0;" parent="1" source="62" target="63" edge="1">
                    <mxGeometry relative="1" as="geometry"/>
                </mxCell>
                <mxCell id="66" value="" style="edgeStyle=none;html=1;strokeColor=#000000;endArrow=classic;endFill=1;entryX=0;entryY=0.5;entryDx=0;entryDy=0;" parent="1" source="62" target="65" edge="1">
                    <mxGeometry relative="1" as="geometry">
                        <mxPoint x="274" y="2566" as="targetPoint"/>
                    </mxGeometry>
                </mxCell>
                <mxCell id="68" value="" style="edgeStyle=none;html=1;strokeColor=#000000;endArrow=classic;endFill=1;" parent="1" source="62" target="67" edge="1">
                    <mxGeometry relative="1" as="geometry"/>
                </mxCell>
                <mxCell id="70" value="" style="edgeStyle=none;html=1;strokeColor=#000000;endArrow=classic;endFill=1;entryX=0;entryY=0.5;entryDx=0;entryDy=0;" parent="1" source="62" target="69" edge="1">
                    <mxGeometry relative="1" as="geometry"/>
                </mxCell>
                <mxCell id="184" style="edgeStyle=none;html=1;entryX=0;entryY=0.5;entryDx=0;entryDy=0;strokeColor=#000000;fontColor=#000000;" edge="1" parent="1" source="62" target="149">
                    <mxGeometry relative="1" as="geometry"/>
                </mxCell>
                <mxCell id="185" style="edgeStyle=none;html=1;entryX=0;entryY=0.5;entryDx=0;entryDy=0;strokeColor=#000000;fontColor=#000000;" edge="1" parent="1" source="62" target="150">
                    <mxGeometry relative="1" as="geometry"/>
                </mxCell>
                <mxCell id="186" style="edgeStyle=none;html=1;entryX=0;entryY=0.5;entryDx=0;entryDy=0;strokeColor=#000000;fontColor=#000000;" edge="1" parent="1" source="62" target="153">
                    <mxGeometry relative="1" as="geometry"/>
                </mxCell>
                <mxCell id="187" style="edgeStyle=none;html=1;entryX=0;entryY=0.5;entryDx=0;entryDy=0;strokeColor=#000000;fontColor=#000000;" edge="1" parent="1" source="62" target="152">
                    <mxGeometry relative="1" as="geometry"/>
                </mxCell>
                <mxCell id="62" value="Staff" style="shape=umlActor;verticalLabelPosition=bottom;verticalAlign=top;html=1;strokeColor=#000000;fillColor=none;fontColor=#000000;fontSize=31;" parent="1" vertex="1">
                    <mxGeometry x="-37.38" y="2582" width="72" height="123" as="geometry"/>
                </mxCell>
                <mxCell id="103" style="edgeStyle=none;html=1;exitX=1;exitY=0.5;exitDx=0;exitDy=0;entryX=0;entryY=0.5;entryDx=0;entryDy=0;strokeColor=#000000;fontSize=20;fontColor=#000000;endArrow=classic;endFill=1;" parent="1" source="63" target="76" edge="1">
                    <mxGeometry relative="1" as="geometry"/>
                </mxCell>
                <mxCell id="63" value="UC 6.5.1&amp;nbsp;see a 3D representation of the &lt;br/&gt;hospital/clinic floor" style="whiteSpace=wrap;html=1;verticalAlign=top;fillColor=#CCE5FF;strokeColor=#000000;fontColor=#000000;" parent="1" vertex="1">
                    <mxGeometry x="271" y="2488" width="400" height="44" as="geometry"/>
                </mxCell>
                <mxCell id="104" style="edgeStyle=none;html=1;strokeColor=#000000;fontSize=20;fontColor=#000000;endArrow=classic;endFill=1;exitX=1;exitY=0.5;exitDx=0;exitDy=0;entryX=0;entryY=0.5;entryDx=0;entryDy=0;" parent="1" source="65" edge="1" target="76">
                    <mxGeometry relative="1" as="geometry">
                        <mxPoint x="987.0000762939453" y="744.4999046325684" as="targetPoint"/>
                    </mxGeometry>
                </mxCell>
                <mxCell id="65" value="UC 6.5.2&amp;nbsp;&amp;nbsp;see appropriate textures" style="whiteSpace=wrap;html=1;verticalAlign=top;fillColor=#CCE5FF;strokeColor=#000000;fontColor=#000000;" parent="1" vertex="1">
                    <mxGeometry x="271" y="2542" width="400" height="32" as="geometry"/>
                </mxCell>
                <mxCell id="106" style="edgeStyle=none;html=1;exitX=1;exitY=0.5;exitDx=0;exitDy=0;entryX=0;entryY=0.5;entryDx=0;entryDy=0;strokeColor=#000000;fontSize=20;fontColor=#000000;endArrow=classic;endFill=1;" parent="1" source="67" target="76" edge="1">
                    <mxGeometry relative="1" as="geometry"/>
                </mxCell>
                <mxCell id="67" value="UC 6.5.3&amp;nbsp;see the hospital/clinic floor illuminated &lt;br/&gt;with ambient and directional light" style="whiteSpace=wrap;html=1;verticalAlign=top;fillColor=#CCE5FF;strokeColor=#000000;fontColor=#000000;" parent="1" vertex="1">
                    <mxGeometry x="271" y="2585" width="400" height="44" as="geometry"/>
                </mxCell>
                <mxCell id="107" style="edgeStyle=none;html=1;exitX=1;exitY=0.5;exitDx=0;exitDy=0;entryX=0;entryY=0.5;entryDx=0;entryDy=0;strokeColor=#000000;fontSize=20;fontColor=#000000;endArrow=classic;endFill=1;" parent="1" source="69" target="76" edge="1">
                    <mxGeometry relative="1" as="geometry"/>
                </mxCell>
                <mxCell id="69" value="UC 6.5.4&amp;nbsp;control the camera with the mouse" style="whiteSpace=wrap;html=1;verticalAlign=top;fillColor=#CCE5FF;strokeColor=#000000;fontColor=#000000;" parent="1" vertex="1">
                    <mxGeometry x="271" y="2640" width="400" height="35" as="geometry"/>
                </mxCell>
                <mxCell id="73" value="" style="edgeStyle=none;html=1;strokeColor=#000000;endArrow=classic;endFill=1;" parent="1" source="71" target="72" edge="1">
                    <mxGeometry relative="1" as="geometry"/>
                </mxCell>
                <mxCell id="71" value="&lt;font style=&quot;font-size: 31px;&quot;&gt;Backoffice&lt;br&gt;user&lt;/font&gt;" style="shape=umlActor;verticalLabelPosition=bottom;verticalAlign=top;html=1;strokeColor=#000000;fillColor=none;fontColor=#000000;" parent="1" vertex="1">
                    <mxGeometry x="-38" y="2930" width="71" height="108" as="geometry"/>
                </mxCell>
                <mxCell id="105" style="edgeStyle=none;html=1;entryX=0;entryY=0.5;entryDx=0;entryDy=0;strokeColor=#000000;fontSize=20;fontColor=#000000;endArrow=classic;endFill=1;exitX=1;exitY=0.5;exitDx=0;exitDy=0;" parent="1" source="72" target="12" edge="1">
                    <mxGeometry relative="1" as="geometry"/>
                </mxCell>
                <mxCell id="72" value="UC 6.2.4&amp;nbsp;log in to the system using my &lt;br/&gt;credentials" style="whiteSpace=wrap;html=1;verticalAlign=top;fillColor=#FFCCFF;strokeColor=#000000;fontColor=#000000;" parent="1" vertex="1">
                    <mxGeometry x="271" y="2960.5" width="400" height="47" as="geometry"/>
                </mxCell>
                <mxCell id="76" value="UI" style="html=1;strokeColor=#000000;fontColor=#000000;fillColor=none;" parent="1" vertex="1">
                    <mxGeometry x="1096" y="1297" width="110" height="50" as="geometry"/>
                </mxCell>
                <mxCell id="193" style="edgeStyle=none;html=1;exitX=1;exitY=0.75;exitDx=0;exitDy=0;entryX=0;entryY=0.25;entryDx=0;entryDy=0;strokeColor=#000000;fontColor=#000000;" edge="1" parent="1" source="111" target="76">
                    <mxGeometry relative="1" as="geometry"/>
                </mxCell>
                <mxCell id="111" value="UC 7.2.2 Add new Allergy" style="whiteSpace=wrap;html=1;verticalAlign=top;fillColor=#FFE6CC;strokeColor=#000000;fontColor=#000000;" vertex="1" parent="1">
                    <mxGeometry x="271" y="724" width="400" height="30" as="geometry"/>
                </mxCell>
                <mxCell id="194" style="edgeStyle=none;html=1;exitX=1;exitY=0.5;exitDx=0;exitDy=0;entryX=0;entryY=0.5;entryDx=0;entryDy=0;strokeColor=#000000;fontColor=#000000;" edge="1" parent="1" source="112" target="76">
                    <mxGeometry relative="1" as="geometry"/>
                </mxCell>
                <mxCell id="112" value="UC 7.2.4 Add new Medical Condition" style="whiteSpace=wrap;html=1;verticalAlign=top;fillColor=#FFE6CC;strokeColor=#000000;fontColor=#000000;" vertex="1" parent="1">
                    <mxGeometry x="271" y="771" width="400" height="30" as="geometry"/>
                </mxCell>
                <mxCell id="195" style="edgeStyle=none;html=1;exitX=1;exitY=0.75;exitDx=0;exitDy=0;entryX=0;entryY=0.5;entryDx=0;entryDy=0;strokeColor=#000000;fontColor=#000000;" edge="1" parent="1" source="113" target="76">
                    <mxGeometry relative="1" as="geometry"/>
                </mxCell>
                <mxCell id="113" value="UC 7.2.10 Add new Types of Rooms" style="whiteSpace=wrap;html=1;verticalAlign=top;fillColor=#FFE6CC;strokeColor=#000000;fontColor=#000000;" vertex="1" parent="1">
                    <mxGeometry x="271" y="815" width="400" height="30" as="geometry"/>
                </mxCell>
                <mxCell id="196" style="edgeStyle=none;html=1;exitX=1;exitY=0.5;exitDx=0;exitDy=0;entryX=0;entryY=0.25;entryDx=0;entryDy=0;strokeColor=#000000;fontColor=#000000;" edge="1" parent="1" source="114" target="76">
                    <mxGeometry relative="1" as="geometry"/>
                </mxCell>
                <mxCell id="114" value="UC 7.2.11 Add new Specializations" style="whiteSpace=wrap;html=1;verticalAlign=top;fillColor=#FFE6CC;strokeColor=#000000;fontColor=#000000;" vertex="1" parent="1">
                    <mxGeometry x="271" y="858" width="400" height="30" as="geometry"/>
                </mxCell>
                <mxCell id="198" style="edgeStyle=none;html=1;exitX=1;exitY=0.5;exitDx=0;exitDy=0;entryX=0;entryY=0.25;entryDx=0;entryDy=0;strokeColor=#000000;fontColor=#000000;" edge="1" parent="1" source="115" target="76">
                    <mxGeometry relative="1" as="geometry"/>
                </mxCell>
                <mxCell id="115" value="UC 7.2.13 Edit Specializations" style="whiteSpace=wrap;html=1;verticalAlign=top;fillColor=#FFE6CC;strokeColor=#000000;fontColor=#000000;" vertex="1" parent="1">
                    <mxGeometry x="271" y="904" width="400" height="30" as="geometry"/>
                </mxCell>
                <mxCell id="199" style="edgeStyle=none;html=1;exitX=1;exitY=0.5;exitDx=0;exitDy=0;entryX=0;entryY=0.5;entryDx=0;entryDy=0;strokeColor=#000000;fontColor=#000000;" edge="1" parent="1" source="116" target="76">
                    <mxGeometry relative="1" as="geometry"/>
                </mxCell>
                <mxCell id="116" value="UC 7.2.15 List/Search Specializations" style="whiteSpace=wrap;html=1;verticalAlign=top;fillColor=#FFE6CC;strokeColor=#000000;fontColor=#000000;" vertex="1" parent="1">
                    <mxGeometry x="271" y="946" width="400" height="30" as="geometry"/>
                </mxCell>
                <mxCell id="209" style="edgeStyle=none;html=1;exitX=1;exitY=0.5;exitDx=0;exitDy=0;entryX=0;entryY=0.5;entryDx=0;entryDy=0;strokeColor=#000000;fontColor=#000000;" edge="1" parent="1" source="117" target="76">
                    <mxGeometry relative="1" as="geometry"/>
                </mxCell>
                <mxCell id="117" value="UC 7.2.3 Search for Allergies" style="whiteSpace=wrap;html=1;verticalAlign=top;fillColor=#E6FFCC;strokeColor=#000000;fontColor=#000000;" vertex="1" parent="1">
                    <mxGeometry x="271" y="1873" width="400" height="31" as="geometry"/>
                </mxCell>
                <mxCell id="220" style="edgeStyle=none;html=1;exitX=1;exitY=0.5;exitDx=0;exitDy=0;strokeColor=#000000;fontColor=#000000;" edge="1" parent="1" source="118">
                    <mxGeometry relative="1" as="geometry">
                        <mxPoint x="1093.7014567057295" y="1328.5556996663413" as="targetPoint"/>
                    </mxGeometry>
                </mxCell>
                <mxCell id="118" value="UC 7.2.5 Search for Medical Conditions" style="whiteSpace=wrap;html=1;verticalAlign=top;fillColor=#E6FFCC;strokeColor=#000000;fontColor=#000000;" vertex="1" parent="1">
                    <mxGeometry x="271" y="1916" width="400" height="31" as="geometry"/>
                </mxCell>
                <mxCell id="221" style="edgeStyle=none;html=1;exitX=1;exitY=0.5;exitDx=0;exitDy=0;entryX=0;entryY=0.5;entryDx=0;entryDy=0;strokeColor=#000000;fontColor=#000000;" edge="1" parent="1" source="119" target="76">
                    <mxGeometry relative="1" as="geometry"/>
                </mxCell>
                <mxCell id="119" value="UC 7.2.6 update the Patient Medical Record" style="whiteSpace=wrap;html=1;verticalAlign=top;fillColor=#E6FFCC;strokeColor=#000000;fontColor=#000000;" vertex="1" parent="1">
                    <mxGeometry x="271" y="1960" width="400" height="36" as="geometry"/>
                </mxCell>
                <mxCell id="219" style="edgeStyle=none;html=1;exitX=1;exitY=0.25;exitDx=0;exitDy=0;entryX=0;entryY=0.25;entryDx=0;entryDy=0;strokeColor=#000000;fontColor=#000000;" edge="1" parent="1" source="120" target="76">
                    <mxGeometry relative="1" as="geometry"/>
                </mxCell>
                <mxCell id="120" value="UC 7.2.7 search for entries in the Patient Medical Record" style="whiteSpace=wrap;html=1;verticalAlign=top;fillColor=#E6FFCC;strokeColor=#000000;fontColor=#000000;" vertex="1" parent="1">
                    <mxGeometry x="271" y="2003" width="400" height="36" as="geometry"/>
                </mxCell>
                <mxCell id="218" style="edgeStyle=none;html=1;exitX=1;exitY=0.25;exitDx=0;exitDy=0;entryX=0;entryY=0.5;entryDx=0;entryDy=0;strokeColor=#000000;fontColor=#000000;" edge="1" parent="1" source="121" target="76">
                    <mxGeometry relative="1" as="geometry"/>
                </mxCell>
                <mxCell id="121" value="UC 7.2.8 create a Surgery Appointment" style="whiteSpace=wrap;html=1;verticalAlign=top;fillColor=#E6FFCC;strokeColor=#000000;fontColor=#000000;" vertex="1" parent="1">
                    <mxGeometry x="271" y="2050" width="400" height="36" as="geometry"/>
                </mxCell>
                <mxCell id="217" style="edgeStyle=none;html=1;exitX=1;exitY=0.5;exitDx=0;exitDy=0;entryX=0;entryY=0.5;entryDx=0;entryDy=0;strokeColor=#000000;fontColor=#000000;" edge="1" parent="1" source="122" target="76">
                    <mxGeometry relative="1" as="geometry"/>
                </mxCell>
                <mxCell id="122" value="UC 7.2.9 update a Surgery Appointment" style="whiteSpace=wrap;html=1;verticalAlign=top;fillColor=#E6FFCC;strokeColor=#000000;fontColor=#000000;" vertex="1" parent="1">
                    <mxGeometry x="271" y="2091" width="400" height="36" as="geometry"/>
                </mxCell>
                <mxCell id="200" style="edgeStyle=none;html=1;exitX=1;exitY=0.5;exitDx=0;exitDy=0;entryX=0;entryY=0.5;entryDx=0;entryDy=0;strokeColor=#000000;fontColor=#000000;" edge="1" parent="1" source="123" target="76">
                    <mxGeometry relative="1" as="geometry"/>
                </mxCell>
                <mxCell id="123" value="UC 7.3.1&amp;nbsp;assign a set of operations to several operation rooms" style="whiteSpace=wrap;html=1;verticalAlign=top;fillColor=#FFE6CC;strokeColor=#000000;fontColor=#000000;" vertex="1" parent="1">
                    <mxGeometry x="271" y="986" width="400" height="43" as="geometry"/>
                </mxCell>
                <mxCell id="201" style="edgeStyle=none;html=1;exitX=1;exitY=0.5;exitDx=0;exitDy=0;entryX=0;entryY=0.5;entryDx=0;entryDy=0;strokeColor=#000000;fontColor=#000000;" edge="1" parent="1" source="124" target="76">
                    <mxGeometry relative="1" as="geometry"/>
                </mxCell>
                <mxCell id="124" value="UC 7.3.2 schedule surgeries to several operations &lt;br/&gt;rooms" style="whiteSpace=wrap;html=1;verticalAlign=top;fillColor=#FFE6CC;strokeColor=#000000;fontColor=#000000;" vertex="1" parent="1">
                    <mxGeometry x="271" y="1042" width="400" height="43" as="geometry"/>
                </mxCell>
                <mxCell id="216" style="edgeStyle=none;html=1;exitX=1;exitY=0.5;exitDx=0;exitDy=0;entryX=0;entryY=0.5;entryDx=0;entryDy=0;strokeColor=#000000;fontColor=#000000;" edge="1" parent="1" source="125" target="76">
                    <mxGeometry relative="1" as="geometry"/>
                </mxCell>
                <mxCell id="125" value="UC 7.2.14&amp;nbsp;include the access of the Patient Medical Record during the &lt;br/&gt;patient profile visualization and management" style="whiteSpace=wrap;html=1;verticalAlign=top;fillColor=#E6FFCC;strokeColor=#000000;fontColor=#000000;" vertex="1" parent="1">
                    <mxGeometry x="271" y="2134" width="400" height="55" as="geometry"/>
                </mxCell>
                <mxCell id="202" style="edgeStyle=none;html=1;exitX=1;exitY=0.5;exitDx=0;exitDy=0;entryX=0;entryY=0.75;entryDx=0;entryDy=0;strokeColor=#000000;fontColor=#000000;" edge="1" parent="1" source="144" target="76">
                    <mxGeometry relative="1" as="geometry"/>
                </mxCell>
                <mxCell id="144" value="UC 7.3.4&amp;nbsp;&lt;span style=&quot;background-color: initial;&quot;&gt;the schedule system selects in an adequate way the method to use for scheduling&amp;nbsp;&lt;/span&gt;&lt;div&gt;operations&amp;nbsp;&lt;/div&gt;" style="whiteSpace=wrap;html=1;verticalAlign=top;fillColor=#FFE6CC;strokeColor=#000000;fontColor=#000000;" vertex="1" parent="1">
                    <mxGeometry x="271" y="1097" width="400" height="56" as="geometry"/>
                </mxCell>
                <mxCell id="205" style="edgeStyle=none;html=1;exitX=1;exitY=0.5;exitDx=0;exitDy=0;entryX=0;entryY=0.5;entryDx=0;entryDy=0;strokeColor=#000000;fontColor=#000000;" edge="1" parent="1" source="145" target="76">
                    <mxGeometry relative="1" as="geometry"/>
                </mxCell>
                <mxCell id="145" value="UC 7.6.1&amp;nbsp;download my medical history" style="whiteSpace=wrap;html=1;verticalAlign=top;fillColor=#FFFFCC;strokeColor=#000000;fontColor=#000000;" vertex="1" parent="1">
                    <mxGeometry x="271" y="1481" width="400" height="35" as="geometry"/>
                </mxCell>
                <mxCell id="206" style="edgeStyle=none;html=1;exitX=1;exitY=0.5;exitDx=0;exitDy=0;strokeColor=#000000;fontColor=#000000;" edge="1" parent="1" source="146">
                    <mxGeometry relative="1" as="geometry">
                        <mxPoint x="1096.0299072265625" y="1319.1903599330358" as="targetPoint"/>
                    </mxGeometry>
                </mxCell>
                <mxCell id="146" value="UC 7.6.2&amp;nbsp;request the deletion of my personal data" style="whiteSpace=wrap;html=1;verticalAlign=top;fillColor=#FFFFCC;strokeColor=#000000;fontColor=#000000;" vertex="1" parent="1">
                    <mxGeometry x="271" y="1524" width="400" height="35" as="geometry"/>
                </mxCell>
                <mxCell id="207" style="edgeStyle=none;html=1;exitX=1;exitY=0.5;exitDx=0;exitDy=0;strokeColor=#000000;fontColor=#000000;" edge="1" parent="1" source="147">
                    <mxGeometry relative="1" as="geometry">
                        <mxPoint x="1094.1251743861612" y="1319.1903599330358" as="targetPoint"/>
                    </mxGeometry>
                </mxCell>
                <mxCell id="147" value="UC 7.6.3&amp;nbsp; know what data will be processed, in what manner, and &lt;br/&gt;how" style="whiteSpace=wrap;html=1;verticalAlign=top;fillColor=#FFFFCC;strokeColor=#000000;fontColor=#000000;" vertex="1" parent="1">
                    <mxGeometry x="271" y="1567" width="400" height="56" as="geometry"/>
                </mxCell>
                <mxCell id="208" style="edgeStyle=none;html=1;exitX=1;exitY=0.25;exitDx=0;exitDy=0;entryX=0;entryY=0.25;entryDx=0;entryDy=0;strokeColor=#000000;fontColor=#000000;" edge="1" parent="1" source="148" target="76">
                    <mxGeometry relative="1" as="geometry"/>
                </mxCell>
                <mxCell id="148" value="UC 7.6.4&amp;nbsp;&amp;nbsp;know for how long my personal data will be kept" style="whiteSpace=wrap;html=1;verticalAlign=top;fillColor=#FFFFCC;strokeColor=#000000;fontColor=#000000;" vertex="1" parent="1">
                    <mxGeometry x="271" y="1633" width="400" height="30" as="geometry"/>
                </mxCell>
                <mxCell id="222" style="edgeStyle=none;html=1;exitX=1;exitY=0.5;exitDx=0;exitDy=0;entryX=0;entryY=0.25;entryDx=0;entryDy=0;strokeColor=#000000;fontColor=#000000;" edge="1" parent="1" source="149" target="76">
                    <mxGeometry relative="1" as="geometry"/>
                </mxCell>
                <mxCell id="149" value="UC 7.5.1&amp;nbsp;select a room by left clicking on the &lt;br/&gt;corresponding surgical table" style="whiteSpace=wrap;html=1;verticalAlign=top;fillColor=#CCE5FF;strokeColor=#000000;fontColor=#000000;" vertex="1" parent="1">
                    <mxGeometry x="271" y="2691" width="400" height="43" as="geometry"/>
                </mxCell>
                <mxCell id="223" style="edgeStyle=none;html=1;exitX=1;exitY=0.75;exitDx=0;exitDy=0;strokeColor=#000000;fontColor=#000000;" edge="1" parent="1" source="150">
                    <mxGeometry relative="1" as="geometry">
                        <mxPoint x="1091.479166666667" y="1310.7780659993493" as="targetPoint"/>
                    </mxGeometry>
                </mxCell>
                <mxCell id="150" value="UC 7.5.2&amp;nbsp;&lt;span style=&quot;color: rgba(0, 0, 0, 0); font-family: monospace; font-size: 0px; text-align: start;&quot;&gt;%3CmxGraphModel%3E%3Croot%3E%3CmxCell%20id%3D%220%22%2F%3E%3CmxCell%20id%3D%221%22%20parent%3D%220%22%2F%3E%3CmxCell%20id%3D%222%22%20value%3D%22UC%207.5.1%26amp%3Bnbsp%3Bselect%20a%20room%20by%20left%20clicking%20on%20the%20%26lt%3Bbr%2F%26gt%3Bcorresponding%20surgical%20table%22%20style%3D%22whiteSpace%3Dwrap%3Bhtml%3D1%3BverticalAlign%3Dtop%3BfillColor%3D%23CCE5FF%3BstrokeColor%3D%23000000%3BfontColor%3D%23000000%3B%22%20vertex%3D%221%22%20parent%3D%221%22%3E%3CmxGeometry%20x%3D%22278%22%20y%3D%222651%22%20width%3D%22331%22%20height%3D%2243%22%20as%3D%22geometry%22%2F%3E%3C%2FmxCell%3E%3C%2Froot%3E%3C%2FmxGraphModel%3E&lt;/span&gt;display/hide &lt;br/&gt;an overlay containing updated information about the selected room" style="whiteSpace=wrap;html=1;verticalAlign=top;fillColor=#CCE5FF;strokeColor=#000000;fontColor=#000000;" vertex="1" parent="1">
                    <mxGeometry x="271" y="2750" width="400" height="60" as="geometry"/>
                </mxCell>
                <mxCell id="225" style="edgeStyle=none;html=1;exitX=1;exitY=0.5;exitDx=0;exitDy=0;entryX=0;entryY=0.5;entryDx=0;entryDy=0;strokeColor=#000000;fontColor=#000000;" edge="1" parent="1" source="152" target="76">
                    <mxGeometry relative="1" as="geometry"/>
                </mxCell>
                <mxCell id="152" value="UC 7.5.4&amp;nbsp;the &lt;br/&gt;camera (and the spotlight, if applicable) to move smoothly instead of instantly" style="whiteSpace=wrap;html=1;verticalAlign=top;fillColor=#CCE5FF;strokeColor=#000000;fontColor=#000000;" vertex="1" parent="1">
                    <mxGeometry x="271" y="2870" width="400" height="57" as="geometry"/>
                </mxCell>
                <mxCell id="224" style="edgeStyle=none;html=1;exitX=1;exitY=0.25;exitDx=0;exitDy=0;entryX=0;entryY=0.75;entryDx=0;entryDy=0;strokeColor=#000000;fontColor=#000000;" edge="1" parent="1" source="153" target="76">
                    <mxGeometry relative="1" as="geometry"/>
                </mxCell>
                <mxCell id="153" value="UC 7.5.3 spotlight to follow the camera, targeting the surgical table center point" style="whiteSpace=wrap;html=1;verticalAlign=top;fillColor=#CCE5FF;strokeColor=#000000;fontColor=#000000;" vertex="1" parent="1">
                    <mxGeometry x="271" y="2819" width="400" height="43" as="geometry"/>
                </mxCell>
                <mxCell id="203" style="edgeStyle=none;html=1;exitX=1;exitY=0.75;exitDx=0;exitDy=0;strokeColor=#000000;fontColor=#000000;" edge="1" parent="1" source="154">
                    <mxGeometry relative="1" as="geometry">
                        <mxPoint x="1094.1251743861612" y="1323.0000871930806" as="targetPoint"/>
                    </mxGeometry>
                </mxCell>
                <mxCell id="154" value="UC 7.2.16 update an allergy" style="whiteSpace=wrap;html=1;verticalAlign=top;fillColor=#FFE6CC;strokeColor=#000000;fontColor=#000000;" vertex="1" parent="1">
                    <mxGeometry x="271" y="1165" width="400" height="33" as="geometry"/>
                </mxCell>
                <mxCell id="204" style="edgeStyle=none;html=1;exitX=1;exitY=0.75;exitDx=0;exitDy=0;entryX=0;entryY=0.5;entryDx=0;entryDy=0;strokeColor=#000000;fontColor=#000000;" edge="1" parent="1" source="155" target="76">
                    <mxGeometry relative="1" as="geometry"/>
                </mxCell>
                <mxCell id="155" value="UC 7.2.17 update a medical condition&amp;nbsp;" style="whiteSpace=wrap;html=1;verticalAlign=top;fillColor=#FFE6CC;strokeColor=#000000;fontColor=#000000;" vertex="1" parent="1">
                    <mxGeometry x="271" y="1205" width="400" height="29" as="geometry"/>
                </mxCell>
                <mxCell id="215" style="edgeStyle=none;html=1;exitX=1;exitY=0.5;exitDx=0;exitDy=0;entryX=0;entryY=0.5;entryDx=0;entryDy=0;strokeColor=#000000;fontColor=#000000;" edge="1" parent="1" source="158" target="76">
                    <mxGeometry relative="1" as="geometry"/>
                </mxCell>
                <mxCell id="158" value="UC 7.2.18 update an allergy entry in a medical record" style="whiteSpace=wrap;html=1;verticalAlign=top;fillColor=#E6FFCC;strokeColor=#000000;fontColor=#000000;" vertex="1" parent="1">
                    <mxGeometry x="271" y="2200" width="400" height="36" as="geometry"/>
                </mxCell>
                <mxCell id="214" style="edgeStyle=none;html=1;exitX=1;exitY=0.25;exitDx=0;exitDy=0;entryX=0;entryY=0.25;entryDx=0;entryDy=0;strokeColor=#000000;fontColor=#000000;" edge="1" parent="1" source="163" target="76">
                    <mxGeometry relative="1" as="geometry"/>
                </mxCell>
                <mxCell id="163" value="UC 7.2.19 update a medical condition entry in a medical record" style="whiteSpace=wrap;html=1;verticalAlign=top;fillColor=#E6FFCC;strokeColor=#000000;fontColor=#000000;" vertex="1" parent="1">
                    <mxGeometry x="271" y="2247" width="400" height="36" as="geometry"/>
                </mxCell>
                <mxCell id="213" style="edgeStyle=none;html=1;exitX=1;exitY=0.5;exitDx=0;exitDy=0;strokeColor=#000000;fontColor=#000000;" edge="1" parent="1" source="165">
                    <mxGeometry relative="1" as="geometry">
                        <mxPoint x="1095.9236450195312" y="1315.2223663330078" as="targetPoint"/>
                    </mxGeometry>
                </mxCell>
                <mxCell id="165" value="UC 7.2.20 add an entry about family history in a medical record" style="whiteSpace=wrap;html=1;verticalAlign=top;fillColor=#E6FFCC;strokeColor=#000000;fontColor=#000000;" vertex="1" parent="1">
                    <mxGeometry x="271" y="2291" width="400" height="36" as="geometry"/>
                </mxCell>
                <mxCell id="211" style="edgeStyle=none;html=1;exitX=1;exitY=0.25;exitDx=0;exitDy=0;strokeColor=#000000;fontColor=#000000;" edge="1" parent="1" source="166">
                    <mxGeometry relative="1" as="geometry">
                        <mxPoint x="1088.3853149414062" y="1319.9999237060547" as="targetPoint"/>
                    </mxGeometry>
                </mxCell>
                <mxCell id="166" value="UC 7.2.21 update an entry about family history in a medical record" style="whiteSpace=wrap;html=1;verticalAlign=top;fillColor=#E6FFCC;strokeColor=#000000;fontColor=#000000;" vertex="1" parent="1">
                    <mxGeometry x="271" y="2337" width="400" height="36" as="geometry"/>
                </mxCell>
                <mxCell id="212" style="edgeStyle=none;html=1;exitX=1;exitY=0.25;exitDx=0;exitDy=0;entryX=0;entryY=0.25;entryDx=0;entryDy=0;strokeColor=#000000;fontColor=#000000;" edge="1" parent="1" source="168" target="76">
                    <mxGeometry relative="1" as="geometry"/>
                </mxCell>
                <mxCell id="168" value="UC 7.2.22 add a free text entry in a medical record" style="whiteSpace=wrap;html=1;verticalAlign=top;fillColor=#E6FFCC;strokeColor=#000000;fontColor=#000000;" vertex="1" parent="1">
                    <mxGeometry x="271" y="2381" width="400" height="36" as="geometry"/>
                </mxCell>
                <mxCell id="210" style="edgeStyle=none;html=1;exitX=1;exitY=0.5;exitDx=0;exitDy=0;entryX=0;entryY=0.5;entryDx=0;entryDy=0;strokeColor=#000000;fontColor=#000000;" edge="1" parent="1" source="169" target="76">
                    <mxGeometry relative="1" as="geometry"/>
                </mxCell>
                <mxCell id="169" value="UC 7.2.23 update a free text entry in a medical record" style="whiteSpace=wrap;html=1;verticalAlign=top;fillColor=#E6FFCC;strokeColor=#000000;fontColor=#000000;" vertex="1" parent="1">
                    <mxGeometry x="271" y="2427" width="400" height="36" as="geometry"/>
                </mxCell>
            </root>
        </mxGraphModel>
    </diagram>
</mxfile>